<?xml version="1.0" standalone="no"?>
<!DOCTYPE svg PUBLIC "-//W3C//DTD SVG 1.1//EN" "http://www.w3.org/Graphics/SVG/1.1/DTD/svg11.dtd" >
<!--
2013-9-30: Created.
-->
<svg>
<metadata>
Created by iconfont
</metadata>
<defs>

<font id="iconfont" horiz-adv-x="1024" >
  <font-face
    font-family="iconfont"
    font-weight="500"
    font-stretch="normal"
    units-per-em="1024"
    ascent="896"
    descent="-128"
  />
    <missing-glyph />
    
    <glyph glyph-name="asterisk" unicode="&#58927;" d="M530.324 406.856a1391.068 1391.068 0 0 1 40.812 19.712c12.923 6.604 23.27 11.484 30.904 14.54 7.655 2.985 13.788 4.578 18.432 4.578 7.66 0 14.27-2.509 19.876-7.747 5.607-5.104 8.387-11.597 8.387-19.23 0-4.378-1.388-8.981-4.122-13.67-2.713-4.722-5.652-7.753-8.704-9.074-28.308-11.12-59.505-19.302-93.48-24.36 6.174-5.602 13.741-13.236 22.742-22.63 8.996-9.524 13.742-14.542 14.106-15.177 3.328-4.577 7.905-10.296 13.834-17.09 5.924-6.835 10.025-12.124 12.329-15.975 2.304-3.896 3.461-8.478 3.461-13.967 0-7.025-2.621-13.194-7.905-18.437-5.223-5.289-12.083-7.936-20.419-7.936s-17.664 6.523-28.144 19.42c-10.414 12.903-23.885 36.209-40.336 69.775-16.66-30.218-27.893-50.247-33.546-59.909-5.719-9.574-11.213-16.89-16.456-21.857-5.283-4.92-11.279-7.429-18.114-7.429-8.115 0-14.879 2.78-20.306 8.387-5.263 5.606-8.023 11.648-8.023 17.955 0 5.93 1.075 10.414 3.282 13.45 20.193 27.413 41.226 51.344 63.222 71.425-18.438 2.887-34.868 6.103-49.342 9.564-14.49 3.584-29.9 8.663-46.1 15.498-2.663 1.341-5.223 4.372-7.747 9.068-2.458 4.648-3.686 9.026-3.686 12.968 0 7.63 2.775 14.106 8.381 19.231 5.606 5.223 12.012 7.747 19.282 7.747 5.284 0 11.827-1.593 19.758-4.762 7.86-3.215 17.884-7.792 30.054-13.808a3860.582 3860.582 0 0 1 41.662-20.26c-2.847 13.834-5.222 29.716-7.086 47.534-1.869 17.889-2.78 30.131-2.78 36.736 0 8.115 2.575 15.022 7.7 20.9 5.223 5.81 11.781 8.704 19.917 8.704 7.982 0 14.428-2.893 19.6-8.704 5.196-5.883 7.746-13.584 7.746-23.245 0-2.622-0.43-7.813-1.183-15.657-0.686-7.813-1.869-17.203-3.261-28.257a4246.318 4246.318 0 0 1-4.741-38.011z"  horiz-adv-x="1024" />

    
    <glyph glyph-name="shipin" unicode="&#58954;" d="M256.007 853.33c0 23.564 19.102 42.666 42.666 42.666s42.666-19.102 42.666-42.666v-938.66c0-23.564-19.102-42.666-42.666-42.666s-42.666 19.102-42.666 42.666zM554.672 512.852c0 23.040 16.213 33.28 37.546 23.040l227.838-114.346c41.813-21.333 40.96-55.466 0-75.946l-33.28-17.067-193.705-96.426c-21.333-10.24-38.4 0-38.4 23.040zM0.009 511.999c-0.006 0.254-0.009 0.553-0.009 0.853 0 23.093 18.72 41.813 41.813 41.813 0.003 0 0.006-0 0.009-0l255.998 0c0.254 0.005 0.553 0.009 0.853 0.009 23.564 0 42.666-19.102 42.666-42.666 0-0.003-0-0.006-0-0.009 0.006-0.254 0.009-0.553 0.009-0.853 0-23.093-18.72-41.813-41.813-41.813-0.003 0-0.006 0-0.009 0l-255.998-0c-0.254-0.005-0.553-0.009-0.853-0.009-23.564 0-42.666 19.102-42.666 42.666 0 0.003 0 0.006 0 0.009zM0.009 256.001c-0.006 0.254-0.009 0.553-0.009 0.853 0 23.093 18.72 41.813 41.813 41.813 0.003 0 0.006-0 0.009-0l255.998 0c0.254 0.005 0.553 0.009 0.853 0.009 23.564 0 42.666-19.102 42.666-42.666 0-0.003-0-0.006-0-0.009 0.006-0.254 0.009-0.553 0.009-0.853 0-23.093-18.72-41.813-41.813-41.813-0.003 0-0.006 0-0.009 0l-255.998-0c-0.254-0.005-0.553-0.009-0.853-0.009-23.564 0-42.666 19.102-42.666 42.666 0 0.003 0 0.006 0 0.009zM1024.002 511.999c-0.006 0.254-0.009 0.553-0.009 0.853 0 23.093 18.72 41.813 41.813 41.813 0.003 0 0.006-0 0.009-0l255.998 0c23.194-0.479 41.813-19.394 41.813-42.658 0-0.003-0-0.006-0-0.009 0.006-0.254 0.009-0.553 0.009-0.853 0-23.093-18.72-41.813-41.813-41.813-0.003 0-0.006 0-0.009 0l-255.998-0c-23.194 0.479-41.813 19.394-41.813 42.658 0 0.003 0 0.006 0 0.009zM1024.002 256.001c-0.006 0.254-0.009 0.553-0.009 0.853 0 23.093 18.72 41.813 41.813 41.813 0.003 0 0.006-0 0.009-0l255.998 0c23.194-0.479 41.813-19.394 41.813-42.658 0-0.003-0-0.006-0-0.009 0.006-0.254 0.009-0.553 0.009-0.853 0-23.093-18.72-41.813-41.813-41.813-0.003 0-0.006 0-0.009 0l-255.998-0c-23.194 0.479-41.813 19.394-41.813 42.658 0 0.003 0 0.006 0 0.009zM1024.002 853.33c0 23.564 19.102 42.666 42.666 42.666s42.666-19.102 42.666-42.666l0-938.66c-0-23.564-19.102-42.666-42.666-42.666s-42.666 19.102-42.666 42.666zM1262.933 895.997h-1160.526c-0.254 0.002-0.553 0.004-0.853 0.004-56.082 0-101.546-45.464-101.546-101.546 0-0.001 0-0.003 0-0.004l-0-820.048c0.479-56.362 46.042-101.923 102.358-102.399l1160.567-0c0.254-0.002 0.553-0.004 0.853-0.004 56.082 0 101.546 45.464 101.546 101.546 0 0.001-0 0.003-0 0.004l0 820.901c-0.953 55.997-46.339 101.081-102.363 101.546zM1280 25.602c0-0.002 0-0.003 0-0.005 0-37.402-30.079-67.779-67.367-68.26l-1059.878-0c-37.334 0.482-67.413 30.859-67.413 68.261 0 0.002 0 0.004 0 0.006l-0 716.795c-0 0.002-0 0.003-0 0.005 0 37.402 30.079 67.779 67.367 68.26l1059.878 0c37.334-0.482 67.413-30.859 67.413-68.261 0-0.002-0-0.004-0-0.006z"  horiz-adv-x="1365" />

    
    <glyph glyph-name="scan" unicode="&#58887;" d="M441.344 165.888H345.6c-28.672 0-51.712 23.04-51.712 51.712v87.552c0 10.24-8.192 18.432-18.432 18.432s-18.432-8.192-18.432-18.432v-87.552c0-49.152 39.936-89.088 89.088-89.088h95.744c10.24 0 18.432 8.192 18.432 18.432s-8.192 18.944-18.944 18.944zM274.944 428.032c10.24 0 18.432 8.192 18.432 18.432V550.4c0 28.672 23.04 51.712 51.712 51.712h95.744c10.24 0 18.432 8.192 18.432 18.432s-8.192 18.432-18.432 18.432H345.088C295.936 638.976 256 599.04 256 549.888v-103.936c0.512-9.728 8.704-17.92 18.944-17.92z m474.624-103.936c-10.24 0-18.432-8.192-18.432-18.432v-88.064c0-28.672-23.04-51.712-51.712-51.712H583.68c-10.24 0-18.432-8.192-18.432-18.432s8.192-18.432 18.432-18.432h95.744c48.64-0.512 89.088 39.936 89.088 89.088v87.552c-0.512 10.24-8.704 18.432-18.944 18.432zM678.912 640h-95.744c-10.24 0-18.432-8.192-18.432-18.432s8.192-18.432 18.432-18.432h95.744c28.672 0 51.712-23.04 51.712-51.712v-103.936c0-10.24 8.192-18.432 18.432-18.432s18.432 8.192 18.432 18.432V550.912c0.512 49.152-39.424 89.088-88.576 89.088zM374.784 385.024c0-10.24 8.192-18.432 18.432-18.432h238.08c10.24 0 18.432 8.192 18.432 18.432s-8.192 18.432-18.432 18.432H393.216c-10.24 0-18.432-8.192-18.432-18.432z m0 0"  horiz-adv-x="1024" />

    
    <glyph glyph-name="message" unicode="&#58889;" d="M713.216 286.72V413.696c0 96.256-67.072 176.128-156.672 196.608v26.624c0 24.576-19.968 44.032-44.032 44.032-24.576 0-44.032-19.968-44.032-44.032v-26.624C378.88 590.336 311.808 509.952 311.808 414.208V286.72c-28.672-6.144-50.176-31.232-50.176-61.44 0-34.304 28.672-62.464 62.976-62.464H424.96v-0.512c6.144-42.496 42.496-75.264 87.04-75.264 42.496 0 77.312 30.208 86.016 69.632 0.512 2.048 1.024 4.096 1.024 6.144v0.512h101.376c34.304 0 62.976 28.16 62.976 62.464 0 30.208-22.016 55.296-50.176 60.928zM491.52 631.296c0 11.264 9.216 20.48 19.968 20.48 10.752 0 19.968-9.216 19.968-20.48v-17.408c-6.656 0.512-12.8 1.024-19.456 1.024-6.656 0-13.824-0.512-20.48-1.024v17.408z m208.896-431.616H323.584c-13.824 0-25.6 11.264-25.6 25.088 0 11.776 8.704 22.528 20.48 24.576 17.408 3.584 30.208 18.944 30.208 36.864V413.696c0 90.112 73.216 163.328 163.328 163.328 90.112 0 163.328-73.216 163.328-163.328V286.72c0-17.408 12.8-32.768 30.208-36.864 11.776-2.048 20.48-12.8 20.48-24.576-0.512-14.336-11.776-25.6-25.6-25.6z"  horiz-adv-x="1024" />

    
    <glyph glyph-name="delete" unicode="&#58890;" d="M711.168 513.024c-11.264 0-19.968-9.216-19.968-19.968v-340.48c0-15.36-9.728-27.648-22.528-27.648H371.2c-12.288 0-22.528 12.288-22.528 27.648V492.544c0 11.264-9.216 19.968-19.968 19.968-11.264 0-19.968-9.216-19.968-19.968v-378.368c0-16.384 12.288-29.696 27.648-29.696h367.616c15.36 0 27.648 13.312 27.648 29.696V492.544c-0.512 11.264-9.216 20.48-20.48 20.48z m0 0M479.744 179.2V465.408c0 12.288-9.216 22.016-19.968 22.016-11.264 0-19.968-9.728-19.968-22.016V179.2c0-12.288 9.216-22.016 19.968-22.016 11.264 0 19.968 9.728 19.968 22.016z m111.616 0V465.408c0 12.288-9.216 22.016-19.968 22.016-11.264 0-19.968-9.728-19.968-22.016V179.2c0-12.288 9.216-22.016 19.968-22.016 10.752 0 19.968 9.728 19.968 22.016z m182.272 419.328H250.368c-11.264 0-19.968-9.216-19.968-19.968 0-11.264 9.216-19.968 19.968-19.968h523.264c11.264 0 19.968 9.216 19.968 19.968 0 10.752-8.704 19.968-19.968 19.968z m-356.864 45.056h193.024c13.312 0 24.064 9.216 24.064 19.968 0 11.264-10.752 19.968-24.064 19.968H416.768c-13.312 0-24.064-9.216-24.064-19.968 0-10.752 10.752-19.968 24.064-19.968z m0 0"  horiz-adv-x="1024" />

    
    <glyph glyph-name="search" unicode="&#58891;" d="M799.744 120.832l-120.832 120.832c41.472 46.592 67.072 108.032 67.072 175.616C745.984 563.2 627.712 680.96 482.304 680.96c-145.92 0-263.68-118.272-263.68-263.68 0-145.92 118.272-263.68 263.68-263.68 64 0 122.88 23.04 168.448 60.928l121.344-121.344c7.68-7.68 20.48-7.68 28.16 0 7.168 7.168 7.168 19.968-0.512 27.648zM258.048 417.28c0 123.904 100.352 224.256 224.256 224.256S706.56 541.184 706.56 417.28c0-123.904-100.352-224.256-224.256-224.256-123.904-0.512-224.256 100.352-224.256 224.256z m0 0"  horiz-adv-x="1024" />

    
    <glyph glyph-name="comment" unicode="&#58892;" d="M736.768 615.936H287.744c-41.472 0-74.752-33.792-74.752-74.752v-299.52c0-41.472 33.792-74.752 74.752-74.752h146.944l77.824-94.72 77.312 94.72h146.944c41.472 0 74.752 33.792 74.752 74.752V541.184c0 41.472-33.792 74.752-74.752 74.752z m-387.072-262.144c-19.968 0-36.352 16.384-36.352 36.352 0 19.968 16.384 36.352 36.352 36.352 19.968 0 36.352-16.384 36.352-36.352 0-19.968-15.872-36.352-36.352-36.352z m162.816 0c-19.968 0-36.352 16.384-36.352 36.352 0 19.968 16.384 36.352 36.352 36.352 19.968 0 36.352-16.384 36.352-36.352 0-19.968-16.384-36.352-36.352-36.352z m162.304 0c-19.968 0-36.352 16.384-36.352 36.352 0 19.968 16.384 36.352 36.352 36.352 19.968 0 36.352-16.384 36.352-36.352 0-19.968-16.384-36.352-36.352-36.352z m0 0"  horiz-adv-x="1024" />

    
    <glyph glyph-name="clear" unicode="&#58893;" d="M512 693.248c-171.008 0-309.248-138.24-309.248-309.248s138.24-309.248 309.248-309.248 309.248 138.24 309.248 309.248-138.24 309.248-309.248 309.248m130.048-439.296c-8.192-8.192-22.528-8.192-30.72 0L512 353.28l-98.816-98.816c-8.192-8.192-22.528-8.192-30.72 0-8.192 8.192-8.192 22.528 0 30.72L481.28 384 381.952 482.816c-8.192 8.192-8.192 22.528 0 30.72 8.192 8.192 22.528 8.192 30.72 0L512 414.72l98.816 98.816c8.192 8.192 22.528 8.192 30.72 0 8.192-8.192 8.192-22.528 0-30.72L542.72 384l98.816-98.816c10.752-8.192 10.752-22.528 0.512-31.232"  horiz-adv-x="1024" />

    
    <glyph glyph-name="edit" unicode="&#58894;" d="M288.768 277.504l-44.032-160.256 159.744 44.544 252.928 252.416-117.76 114.688-250.88-251.392z m349.696 349.184l-62.976-62.976 117.76-114.176 60.928 60.928c32.256 32.256 32.256 83.968 0 116.224-31.744 32.256-83.456 32.256-115.712 0z m0 0"  horiz-adv-x="1024" />

    
    <glyph glyph-name="back" unicode="&#58895;" d="M626.688 118.272c9.216 0 17.92 5.632 21.504 14.848 3.584 8.704 1.536 18.944-4.608 26.112L430.08 384l214.016 225.28c9.216 9.728 8.704 24.576-0.512 33.792-9.216 9.216-24.064 9.216-33.28-0.512L380.416 400.896c-8.704-9.216-8.704-24.064 0-33.28l229.376-241.664c4.608-5.12 10.752-7.68 16.896-7.68z m0 0"  horiz-adv-x="1024" />

    
    <glyph glyph-name="added" unicode="&#58896;" d="M512 693.248c-170.496 0-309.248-138.24-309.248-309.248 0-170.496 138.24-309.248 309.248-309.248 170.496 0 309.248 138.24 309.248 309.248 0 170.496-138.752 309.248-309.248 309.248z m0-574.464c-146.432 0-265.216 118.784-265.216 265.216 0 146.432 118.784 265.216 265.216 265.216 146.432 0 265.216-118.784 265.216-265.216 0-146.432-118.784-265.216-265.216-265.216z m131.072 287.232h-109.056V515.072c0 12.8-9.728 23.552-22.016 23.552s-22.016-10.24-22.016-23.552v-109.056H380.416c-12.8 0-23.552-9.728-23.552-22.016s10.24-22.016 23.552-22.016h109.056v-109.056c0-12.8 9.728-23.552 22.016-23.552s22.016 10.24 22.016 23.552v109.056h109.056c12.8 0 23.552 9.728 23.552 22.016s-10.24 22.016-23.04 22.016z m0 0"  horiz-adv-x="1024" />

    
    <glyph glyph-name="select" unicode="&#58897;" d="M514.56 673.28c-170.496 0-309.248-138.752-309.248-309.76s138.24-309.76 309.248-309.76c170.496 0 309.248 138.752 309.248 309.76-0.512 171.008-138.752 309.76-309.248 309.76z m162.304-221.184l-205.312-226.304c-4.608-5.12-11.264-8.192-17.92-8.192-7.168 0-13.824 2.56-18.432 7.168L337.408 322.56c-9.728 9.728-9.728 26.112 0 35.84 9.728 9.728 26.112 9.728 35.84 0l78.848-78.848L639.488 486.4c9.216 10.24 25.088 11.264 35.84 1.536 10.24-9.728 10.752-25.6 1.536-35.84z m0 0"  horiz-adv-x="1024" />

    
    <glyph glyph-name="reduce" unicode="&#58898;" d="M512 693.248c-170.496 0-309.248-138.24-309.248-309.248 0-170.496 138.24-309.248 309.248-309.248 170.496 0 309.248 138.24 309.248 309.248 0 170.496-138.752 309.248-309.248 309.248z m0-574.464c-146.432 0-265.216 118.784-265.216 265.216 0 146.432 118.784 265.216 265.216 265.216s265.216-118.784 265.216-265.216c0-146.432-118.784-265.216-265.216-265.216zM644.608 361.984H379.392c-12.288 0-22.016 9.728-22.016 22.016s9.728 22.016 22.016 22.016h264.704c12.288 0 22.016-9.728 22.016-22.016 0.512-12.288-9.728-22.016-21.504-22.016z"  horiz-adv-x="1024" />

    
    <glyph glyph-name="triangle" unicode="&#58899;" d="M549.376 141.824l281.6 353.792c25.088 31.744 3.072 77.824-37.376 77.824H230.4c-39.936 0-62.464-46.08-37.376-77.312l281.6-353.792c18.944-24.576 55.808-24.576 74.752-0.512z"  horiz-adv-x="1024" />

    
    <glyph glyph-name="avatar" unicode="&#58900;" d="M504.832 710.144c94.208 0 172.544-78.336 172.544-170.496 0-94.208-78.336-172.544-172.544-172.544-92.16 0-172.544 80.896-170.496 172.544 0 91.648 76.288 170.496 170.496 170.496zM790.016 121.856c-2.048-22.528-13.312-33.792-33.792-42.496-27.136-11.264-53.76-15.872-82.944-15.872-51.712-2.048-107.52-4.608-150.528-4.608-78.336 0-143.872 0-208.896 6.656-19.968 2.048-40.448 6.656-56.32 17.92-15.872 9.216-24.576 24.576-24.576 42.496-2.048 125.44 92.16 226.816 217.6 226.816 51.712 0 105.472 4.608 157.184-2.048 105.984-13.312 190.976-118.784 182.272-228.864z"  horiz-adv-x="1024" />

    
    <glyph glyph-name="added_photo" unicode="&#58901;" d="M790.528 406.016h-248.32V654.336c0 12.288-9.728 22.016-22.016 22.016s-22.016-9.728-22.016-22.016v-248.32H249.856c-12.288 0-22.016-9.728-22.016-22.016s9.728-22.016 22.016-22.016h248.32v-248.32c0-12.288 9.728-22.016 22.016-22.016s22.016 9.728 22.016 22.016v248.32h248.32c12.288 0 22.016 9.728 22.016 22.016s-9.728 22.016-22.016 22.016z"  horiz-adv-x="1024" />

    
    <glyph glyph-name="exit" unicode="&#58902;" d="M512 55.808c-181.248 0-328.192 147.456-328.192 328.192S330.752 712.192 512 712.192c181.248 0 328.192-147.456 328.192-328.192s-146.944-328.192-328.192-328.192z m0 625.664C347.648 681.472 214.528 547.84 214.528 384S348.16 86.528 512 86.528c164.352 0 297.472 133.632 297.472 297.472s-133.12 297.472-297.472 297.472zM645.632 272.384L533.504 384 645.12 495.616c6.144 6.144 6.144 15.872 0 21.504-6.144 6.144-15.872 6.144-21.504 0L512 405.504 400.384 517.632c-6.144 6.144-15.872 6.144-21.504 0-6.144-6.144-6.144-15.872 0-21.504L490.496 384 378.88 272.384c-6.144-6.144-6.144-15.872 0-21.504 6.144-6.144 15.872-6.144 21.504 0l111.616 111.616 111.616-111.616c6.144-6.144 15.872-6.144 21.504 0 6.144 5.632 6.144 15.36 0.512 21.504z"  horiz-adv-x="1024" />

    
    <glyph glyph-name="eye_visible" unicode="&#58903;" d="M512.512 222.72h-0.512c-158.208 0-282.624 135.68-286.208 163.328 3.584 28.16 128 162.816 285.696 163.84h1.024c158.208 0 282.624-135.68 286.208-163.328-4.096-28.16-128.512-163.328-286.208-163.84m331.264 167.936c-7.168 59.392-156.672 204.8-331.776 205.312h-1.024c-175.104-0.512-324.096-145.92-331.264-205.312 0-1.024-0.512-2.56-0.512-3.584v-0.512c0-1.536 0-2.56 0.512-3.584 6.656-59.392 156.672-204.8 331.776-205.312 175.104 0 324.608 145.408 331.776 204.8 0 1.536 0.512 2.56 0.512 4.096v0.512c0.512 1.024 0.512 2.048 0 3.584zM512 499.2c-62.464 0-113.152-50.688-113.152-113.152 0-62.464 50.688-113.152 113.152-113.152 62.464 0 113.152 50.688 113.152 113.152 0 62.464-50.688 113.152-113.152 113.152z m0-180.224c-36.864 0-67.072 30.208-67.072 67.072 0 36.864 30.208 67.072 67.072 67.072 36.864 0 67.072-30.208 67.072-67.072 0-36.864-30.208-67.072-67.072-67.072z m0 0"  horiz-adv-x="1024" />

    
    <glyph glyph-name="eye_invisible" unicode="&#58904;" d="M824.832 352.256l-67.584 81.92c26.112 26.624 47.616 57.344 63.488 90.624 4.096 8.704 0 21.504-8.704 30.208-8.704 4.096-20.992 0-29.696-8.704-49.152-105.472-154.624-173.056-271.36-172.544-114.176 0-219.648 65.536-270.336 168.96-4.096 12.8-16.896 17.408-29.696 8.704-8.192-4.096-12.8-17.408-8.192-26.112C219.648 490.496 240.64 464.896 266.24 438.784l-67.584-81.92c-8.704-8.704-4.096-21.504 4.096-30.208 4.096-4.096 8.704-4.096 12.8-4.096s12.8 4.096 16.896 8.704l63.488 77.824c20.992-17.408 42.496-30.208 67.584-43.008l-33.792-99.328c-4.096-12.8 0-21.504 12.8-26.112h8.192c9.216 0 17.408 5.12 20.992 12.8l33.792 99.328c25.6-12.8 54.784-17.408 84.48-21.504v-99.328c0-12.8 8.704-21.504 20.992-21.504 12.8 0 20.992 8.704 20.992 21.504v99.328c29.696 0 59.392 8.704 89.088 17.408l33.792-95.232c4.096-8.704 12.8-12.8 20.992-12.8h8.704c12.8 4.096 16.896 17.408 12.8 26.112l-33.792 99.328c24.064 11.776 46.592 26.112 67.584 43.008l67.584-81.92c4.096-4.096 8.704-8.704 16.896-8.704 4.096 0 8.704 0 12.8 4.096 1.024 8.192 5.12 20.992-3.584 29.696z m0 0"  horiz-adv-x="1024" />

    
    <glyph glyph-name="edit_client" unicode="&#58905;" d="M458.752 332.288c3.584-3.584 7.68-7.68 15.36-7.68s11.264 3.584 15.36 3.584l285.184 288.768c0 3.584 3.584 11.264 3.584 15.36 0 3.584-3.584 11.264-3.584 15.36-7.68 0-11.264 3.584-15.36 3.584-3.584 0-11.264-3.584-15.36-3.584l-285.184-288.768c-7.68-7.68-7.68-18.944 0-26.624z m300.032 159.744c-11.264 0-18.944-7.68-18.944-18.944v-285.184c0-15.36-11.264-30.208-30.208-30.208H314.368c-18.944 0-30.208 15.36-30.208 30.208V583.168c0 18.944 11.264 30.208 30.208 30.208h269.824c11.264 0 18.944 7.68 18.944 18.944s-7.68 18.944-18.944 18.944H295.424c-26.624 0-49.152-23.04-49.152-49.152v-429.568c0-30.208 23.04-53.248 49.152-53.248h429.568c26.624 0 49.152 23.04 49.152 49.152V472.576c3.584 11.776-4.096 19.456-15.36 19.456z m0 0"  horiz-adv-x="1024" />

    
    <glyph glyph-name="phone" unicode="&#58906;" d="M210.944 602.624s-26.624-136.192 174.592-337.92c1.536-1.536 3.072-2.56 4.096-4.096 1.536-1.536 2.56-3.072 4.096-4.096 201.728-201.216 337.92-174.592 337.92-174.592 8.192 1.024 26.112 6.144 31.744 12.288 0 0 31.232 25.6 50.176 56.832 18.944 31.232-16.896 78.848-37.376 99.328-41.472 41.472-79.872 49.664-96.768 38.4-7.68-5.12-37.888-37.888-37.888-37.888-6.144-6.144-17.92-10.752-26.112-10.752 0 0-52.736-0.512-150.528 95.744C368.128 433.664 368.64 486.4 368.64 486.4c0 8.192 5.12 19.968 10.752 26.112l37.888 37.888c14.336 17.92-9.216 61.952-38.4 96.768-18.432 22.528-33.792 35.84-61.952 40.96-36.864 7.168-104.448-43.008-105.984-85.504z m0 0"  horiz-adv-x="1024" />

    
    <glyph glyph-name="locking" unicode="&#58907;" d="M707.072 484.352h-44.544v66.56c0 83.968-68.096 152.576-152.576 152.576S357.888 634.88 357.888 550.912v-66.56h-44.544c-38.4 0-70.144-31.232-70.144-70.144v-279.552c0-38.4 31.232-70.144 70.144-70.144h394.24c38.4 0 70.144 31.232 70.144 70.144V414.208c-0.512 38.912-32.256 70.144-70.656 70.144z m-308.224 66.56c0 61.44 49.664 111.104 111.104 111.104s111.104-49.664 111.104-111.104v-66.56H398.848v66.56z m336.896-416.256c0-15.872-12.8-28.672-28.672-28.672h-394.24c-15.872 0-28.672 12.8-28.672 28.672V414.208c0 15.872 12.8 28.672 28.672 28.672h394.24c15.872 0 28.672-12.8 28.672-28.672v-279.552zM509.952 196.608c-13.312 0-24.064 10.752-24.064 24.064v107.52c0 13.312 10.752 24.064 24.064 24.064s24.064-10.752 24.064-24.064v-107.52c0-12.8-10.752-24.064-24.064-24.064z"  horiz-adv-x="1024" />

    
    <glyph glyph-name="guide_client" unicode="&#58908;" d="M674.304 151.04L578.56 246.784c-7.68 7.68-18.944 7.68-26.624 0s-7.68-18.944 0-26.624l109.568-109.568c3.584-3.584 7.68-5.632 13.312-5.632s9.728 2.048 13.312 5.632l189.952 189.952c7.68 7.68 7.68 18.944 0 26.624s-18.944 7.68-26.624 0l-177.152-176.128z m0 0M515.072 364.544c-87.552 0-158.208 71.168-158.208 158.208S428.032 680.96 515.072 680.96s158.208-71.168 158.208-158.208-70.656-158.208-158.208-158.208z m0 277.504c-66.048 0-119.296-53.76-119.296-119.296s53.76-119.296 119.296-119.296c66.048 0 119.296 53.76 119.296 119.296s-53.248 119.296-119.296 119.296zM261.632 85.504c-9.728 0-18.432 7.68-19.456 17.408-1.024 8.704-1.024 17.408-1.024 26.112 0 73.216 28.672 141.824 80.384 194.048s120.832 80.384 194.048 80.384c48.64 0 96.256-12.8 137.728-36.864 40.448-23.552 74.24-57.344 98.304-97.28 5.632-9.216 2.56-20.992-6.656-26.624-9.216-5.632-20.992-2.56-26.624 6.656-41.984 71.168-119.808 115.712-202.752 115.712-129.536 0-235.008-105.472-235.008-235.008 0-7.68 0.512-14.848 1.024-22.528 1.024-10.752-6.656-19.968-17.408-20.992-1.536-1.024-2.048-1.024-2.56-1.024z"  horiz-adv-x="1024" />

    
    <glyph glyph-name="qr_code" unicode="&#58909;" d="M230.4 655.872v-248.32h256.512V655.872H230.4z m210.432-202.24H275.968v158.72h164.864v-158.72z m-210.432-92.16v-248.32h256.512v248.32H230.4z m210.432-202.24H275.968V317.44h164.864v-158.208z m94.208 496.64v-248.32H793.6V655.872h-258.56z m212.992-202.24h-166.912v158.72h166.912v-158.72z m-166.912-339.968h-46.08v248.32h139.776v-104.448c0-6.144 2.048-6.144 6.144-6.144h66.56v112.64h46.08v-156.16h-166.912v112.64h-44.032l-2.048-2.048v-204.8z m47.616 0h71.168v66.56h-71.168v-66.56z m96.256 0H793.6v66.56h-68.608v-66.56zM324.096 499.2v66.56h69.12v-62.464c0-2.048 0-6.144-4.096-6.144H326.144c0 2.048 0 2.048-2.048 2.048z m0-293.888v66.56H389.12c2.048 0 6.144 0 6.144-4.096v-62.464H324.096z m306.688 360.96h71.168v-66.56h-66.56c-4.096 0-6.144 0-6.144 4.096V563.712c-0.512 0 1.536 0 1.536 2.56z m0 0"  horiz-adv-x="1024" />

    
    <glyph glyph-name="record_client" unicode="&#58910;" d="M775.168 261.632h-111.616v111.616c0 10.24-8.192 18.432-18.432 18.432s-18.432-8.192-18.432-18.432v-111.616h-111.616c-10.24 0-18.432-8.192-18.432-18.432s8.192-18.432 18.432-18.432h111.616v-111.616c0-10.24 8.192-18.432 18.432-18.432s18.432 8.192 18.432 18.432v111.616h111.616c10.24 0 18.432 8.192 18.432 18.432s-8.704 18.432-18.432 18.432zM551.936 95.232H307.712c-40.96 0-74.752 33.28-74.752 74.752V596.992c0 40.96 33.28 74.752 74.752 74.752h411.136c40.96 0 74.752-33.28 74.752-74.752v-260.096c0-11.264-9.216-19.968-19.968-19.968s-19.968 9.216-19.968 19.968V596.992c0 18.944-15.36 34.304-34.304 34.304H307.712c-18.944 0-34.304-15.36-34.304-34.304v-427.008c0-18.944 15.36-34.304 34.304-34.304h244.224c11.264 0 19.968-9.216 19.968-19.968 0-11.264-9.216-20.48-19.968-20.48z"  horiz-adv-x="1024" />

    
    <glyph glyph-name="unlocking" unicode="&#58911;" d="M710.656 482.816h-307.2v66.56c0 60.928 49.664 110.592 110.592 110.592 49.664 0 93.696-33.28 107.008-81.408 3.072-10.752 14.336-17.408 25.088-14.336 10.752 3.072 17.408 14.336 14.336 25.088C642.048 655.36 582.144 701.44 514.048 701.44 430.08 701.44 361.984 633.344 361.984 549.376v-66.56H317.44c-38.4 0-69.632-31.232-69.632-69.632v-278.528c0-38.4 31.232-69.632 69.632-69.632h392.704c38.4 0 69.632 31.232 69.632 69.632V413.184c0.512 38.4-30.72 69.632-69.12 69.632z m28.672-348.16c0-15.872-12.8-28.672-28.672-28.672H317.44c-15.872 0-28.672 12.8-28.672 28.672V413.184c0 15.872 12.8 28.672 28.672 28.672h392.704c15.872 0 28.672-12.8 28.672-28.672v-278.528zM516.608 196.608h-5.12c-11.776 0-21.504 9.728-21.504 21.504v112.128c0 11.776 9.728 21.504 21.504 21.504h5.12c11.776 0 21.504-9.728 21.504-21.504v-112.128c0-12.288-9.728-21.504-21.504-21.504z"  horiz-adv-x="1024" />

    
    <glyph glyph-name="location" unicode="&#58912;" d="M517.632 482.304c34.816 0 63.488-24.064 70.656-57.856 7.168-33.28-11.776-67.072-42.496-80.896-31.232-12.8-68.096-2.56-86.528 26.624-18.944 29.184-15.36 66.048 8.704 90.624 11.776 13.824 30.208 21.504 49.664 21.504z m0 43.008C462.336 525.312 414.72 485.888 404.48 431.616c-10.24-54.272 18.432-108.544 69.12-129.536 50.688-20.992 109.568-3.584 139.776 42.496s24.064 107.52-14.848 145.408c-20.48 23.552-50.688 35.328-80.896 35.328z m0 0M704 617.472c-51.2 52.224-120.32 80.896-192 80.896s-142.336-28.672-192-80.896c-106.496-109.568-106.496-283.136 0-392.704l192-196.608 192 196.608c105.984 110.08 105.984 283.136 0 392.704z m-29.184-365.056L512 84.992l-162.816 167.424c-90.112 92.16-90.112 240.128 0 332.8C391.68 629.248 450.56 654.848 512 654.848s120.32-25.6 162.816-69.12c90.112-92.672 90.112-240.64 0-333.312z m0 0"  horiz-adv-x="1024" />

    
    <glyph glyph-name="selected" unicode="&#58913;" d="M412.672 150.016c-7.68 0-15.872 3.072-21.504 9.216l-208.384 208.384c-12.288 12.288-12.288 31.232 0 43.52 11.776 11.776 31.232 11.776 43.52 0l186.368-186.368L797.696 609.28c11.776 12.288 31.232 12.288 43.52 0 12.288-11.776 12.288-31.232 0-43.52L434.176 158.72c-5.632-5.632-13.824-8.704-21.504-8.704z m0 0"  horiz-adv-x="1024" />

    
    <glyph glyph-name="contact" unicode="&#58914;" d="M305.664 415.232H243.712c-36.864 0-67.072 32.256-67.072 72.192v46.08 1.024 1.024c0 15.872 5.632 39.424 31.232 63.488 17.92 16.384 42.496 30.72 73.728 43.008 61.952 24.064 143.36 37.376 230.4 37.376s168.448-13.312 230.4-37.376c31.232-12.288 55.808-26.624 73.728-43.008 26.112-24.064 31.232-47.616 31.232-63.488V487.936c0-39.936-30.208-72.192-67.072-72.192h-61.952c-36.864 0-67.072 32.256-67.072 72.192v23.04H372.736v-23.552c0-39.936-30.208-72.192-67.072-72.192zM214.016 532.48v-45.568c0-17.408 13.312-31.744 29.696-31.744h61.952c16.384 0 29.696 14.336 29.696 31.744v31.744c0 17.92 13.312 32.256 30.208 32.256h292.864c16.384 0 30.208-14.336 30.208-32.256v-30.72c0-17.408 13.312-31.744 29.696-31.744h61.952c16.384 0 29.696 14.336 29.696 31.744V532.48v2.048 1.536c0 10.24-6.144 21.504-18.432 32.768-13.824 12.8-35.328 25.088-61.952 35.328-57.856 22.528-135.168 34.816-217.6 34.816S352.256 626.688 294.4 604.16c-26.624-10.24-48.128-22.528-61.952-35.328-12.288-11.264-18.432-22.016-18.432-32.768V532.48z m0-0.512zM774.144 273.408l-71.68 179.712c-4.096 10.24-14.848 14.848-24.576 10.752-9.728-4.608-13.824-16.384-9.728-26.624l71.68-180.224v-0.512c1.536-3.584 23.552-62.464-31.232-114.688-6.656-6.656-16.896-7.68-22.528-7.68H336.896c-5.632 0-15.36 1.024-22.528 7.68-54.272 52.224-32.768 111.104-31.232 114.688l71.68 180.224c4.096 10.24-0.512 22.016-9.728 26.624-9.728 4.608-20.48-0.512-24.576-10.752l-71.68-179.712c-1.536-3.072-9.216-24.064-8.704-53.76 0.512-28.16 9.728-69.632 49.152-107.52 12.288-11.776 28.16-17.92 47.104-17.92H686.08c18.944 0 35.328 6.144 47.104 17.92 39.424 37.888 48.64 79.36 49.152 107.52 1.024 30.208-6.656 51.2-8.192 54.272z"  horiz-adv-x="1024" />

    
    <glyph glyph-name="switch" unicode="&#58915;" d="M431.104 116.224V652.288c0 6.656-2.56 12.8-7.168 17.408-8.192 7.68-20.48 9.216-29.696 3.584-2.56-1.536-4.608-3.072-6.656-5.632l-113.152-112.64c-4.608-4.608-7.168-10.752-7.168-17.408 0-6.656 2.56-12.8 7.168-17.408 9.728-9.728 25.088-9.728 34.816 0l73.216 72.704v-476.672c0-13.312 11.264-24.576 24.576-24.576 12.8 0.512 24.064 11.264 24.064 24.576z m164.352 536.064v-535.552c0-6.656 2.56-13.312 7.168-17.92 9.728-9.728 25.088-9.728 34.816 0l115.2 114.688c4.608 4.608 7.168 10.752 7.168 17.408 0 6.656-2.56 12.8-7.168 17.408-9.728 9.728-25.088 9.728-34.816 0l-73.216-72.704V652.288c0 13.312-11.264 24.576-24.576 24.576-13.312-0.512-24.576-11.264-24.576-24.576z m0 0"  horiz-adv-x="1024" />

    
    <glyph glyph-name="notice" unicode="&#58916;" d="M509.952 453.632c-5.632 0-11.264-2.048-15.36-6.144-4.096-4.096-6.144-9.728-6.144-15.36v-193.536c0-11.776 9.728-21.504 21.504-21.504 11.776 0 21.504 9.728 21.504 21.504V432.128c0 12.288-9.728 21.504-21.504 21.504z m0 252.928c-178.176 0-322.56-144.384-322.56-322.56s144.384-322.56 322.56-322.56 322.56 144.384 322.56 322.56-144.384 322.56-322.56 322.56z m0-602.112C355.84 104.448 230.4 229.888 230.4 384s124.928 279.552 279.552 279.552c154.112 0 279.552-124.928 279.552-279.552 0-154.112-124.928-279.552-279.552-279.552z m0 445.952c-7.168 0-13.824-3.072-18.944-7.68-5.12-5.12-7.68-11.776-7.68-18.944 0-7.168 3.072-13.824 7.68-18.944 5.12-5.12 11.776-7.68 18.944-7.68 7.168 0 13.824 3.072 18.944 7.68 5.12 5.12 7.68 11.776 7.68 18.944 0 7.168-3.072 13.824-7.68 18.944-5.12 5.12-11.776 7.68-18.944 7.68z m0 0"  horiz-adv-x="1024" />

    
    <glyph glyph-name="right_arrow" unicode="&#58917;" d="M397.312 117.76c6.144 0 12.288 2.56 16.896 8.192l229.376 241.664c8.704 9.216 8.704 24.064 0 33.28L414.208 642.56c-9.216 9.728-24.064 9.728-33.28 0.512-9.216-9.216-9.728-24.064-0.512-33.792l213.504-225.28-213.504-225.28c-6.144-7.168-8.192-17.408-4.608-26.112 3.584-9.216 12.288-14.848 21.504-14.848z"  horiz-adv-x="1024" />

    
    <glyph glyph-name="top_triangle" unicode="&#58918;" d="M475.136 622.08l-281.6-353.792c-25.088-31.232-2.56-77.312 37.376-77.312h563.712c39.936 0 62.464 46.08 37.376 77.312l-281.6 353.792c-19.456 24.064-55.808 24.064-75.264 0z"  horiz-adv-x="1024" />

    
    <glyph glyph-name="bottom_arrow" unicode="&#58919;" d="M776.192 498.688c0 9.216-5.632 17.92-14.848 21.504-8.704 3.584-18.944 1.536-26.112-4.608l-225.28-213.504-225.28 213.504c-9.728 9.216-24.576 8.704-33.792-0.512s-9.216-24.064 0.512-33.28l241.664-229.376c9.216-8.704 24.064-8.704 33.28 0L768 481.792c5.632 4.608 8.192 10.752 8.192 16.896z"  horiz-adv-x="1024" />

    
    <glyph glyph-name="top_arrow" unicode="&#58920;" d="M243.712 269.312c0-9.216 5.632-17.92 14.848-21.504 8.704-3.584 18.944-1.536 26.112 4.608l225.28 213.504 225.28-213.504c9.728-9.216 24.576-8.704 33.792 0.512s9.216 24.064-0.512 33.28l-241.664 229.376c-9.216 8.704-24.064 8.704-33.28 0l-241.664-229.376c-5.632-4.608-8.192-10.752-8.192-16.896z"  horiz-adv-x="1024" />

    
    <glyph glyph-name="qq" unicode="&#58921;" d="M331.264 438.784c-2.56-6.656 1.024-11.264 0-37.888-0.512-6.656-31.232-39.424-43.52-73.216-11.776-33.28-13.824-68.096 5.12-81.408 18.944-13.824 35.84 45.568 38.4 36.864 1.024-4.096 2.048-7.68 4.096-11.776 6.656-18.944 17.408-35.328 30.72-50.176 3.072-3.584-17.92-9.216-30.72-31.232-12.288-20.992 3.584-60.416 66.048-60.416 80.384 0 98.816 28.16 100.352 28.16 6.144-0.512 6.656 0 12.8 0 7.68 0 4.608-0.512 11.776 0 4.096 0.512 43.008-33.792 97.28-28.16 92.16 9.728 78.336 40.448 71.168 60.416-7.168 20.48-34.304 30.208-33.28 31.232 22.016 24.576 25.6 39.424 33.28 61.44 3.072 9.216 24.576-50.688 40.96-36.864 6.656 6.144 20.48 30.208 6.656 81.408s-40.448 62.976-39.936 73.216c1.024 19.968 0.512 33.792-0.512 37.888-5.12 17.92-15.36 13.824-15.36 17.92 0 101.376-76.288 184.32-171.008 184.32S344.576 558.08 344.576 456.704c-0.512-8.192-7.68-2.56-13.312-17.92z m0 0"  horiz-adv-x="1024" />

    
    <glyph glyph-name="three_points" unicode="&#58922;" d="M249.344 384m-65.536 0a65.536 65.536 0 1 1 131.072 0 65.536 65.536 0 1 1-131.072 0ZM512 384m-65.536 0a65.536 65.536 0 1 1 131.072 0 65.536 65.536 0 1 1-131.072 0ZM774.656 384m-65.536 0a65.536 65.536 0 1 1 131.072 0 65.536 65.536 0 1 1-131.072 0Z"  horiz-adv-x="1024" />

    
    <glyph glyph-name="batch_operate" unicode="&#58923;" d="M754.688 82.944H363.008c-22.528 0-40.96 18.432-40.96 40.96V515.584c0 22.528 18.432 40.96 40.96 40.96h391.68c22.528 0 40.96-18.432 40.96-40.96v-391.68c0-22.528-18.432-40.96-40.96-40.96z m1.536 399.872c0 18.944-15.36 33.792-33.792 33.792H395.776c-18.944 0-33.792-15.36-33.792-33.792v-326.656c0-18.944 15.36-33.792 33.792-33.792h326.656c18.944 0 33.792 15.36 33.792 33.792V482.816z m-138.24 132.608H296.96c-18.944 0-33.792-15.36-33.792-33.792v-311.296c0-10.752-8.704-19.968-19.968-19.968-10.752 0-19.968 8.704-19.968 19.968V614.4c0 22.528 18.432 40.96 40.96 40.96h353.792c10.752 0 19.968-8.704 19.968-19.968 0-10.752-8.704-19.968-19.968-19.968z m0 0"  horiz-adv-x="1024" />

    
    <glyph glyph-name="wechat" unicode="&#58924;" d="M819.2 293.376c0 84.992-83.456 155.136-185.856 155.136-102.4 0-185.856-69.632-185.856-155.136 0-84.992 83.456-155.136 185.856-155.136 22.016 0 42.496 3.584 62.976 8.704 3.584 1.536 6.656 0 10.24-1.536l40.96-24.064c8.704-5.12 13.824-1.536 11.776 8.704l-8.704 34.304c-1.536 3.584 0 8.704 3.584 10.24 39.424 30.208 65.024 72.704 65.024 118.784z m-246.784 24.064c-13.824 0-25.6 11.776-25.6 25.6s11.776 25.6 25.6 25.6 25.6-11.776 25.6-25.6c-0.512-13.824-12.288-25.6-25.6-25.6z m122.368 0c-13.824 0-25.6 11.776-25.6 25.6s11.776 25.6 25.6 25.6 25.6-11.776 25.6-25.6-11.776-25.6-25.6-25.6z m0 0M636.928 461.824h11.776c-16.896 88.576-109.056 156.672-219.648 156.672-124.416 0-223.232-83.456-223.232-185.856 0-56.32 30.72-107.52 78.336-139.776 5.12-3.584 6.656-8.704 5.12-13.824l-10.24-39.424c-3.584-11.776 3.584-16.896 13.824-10.24l47.616 27.136c5.12 1.536 10.24 3.584 13.824 1.536 24.064-6.656 49.152-10.24 74.752-10.24h11.776c-5.12 15.36-6.656 29.184-6.656 46.08-1.536 93.184 90.112 167.936 202.752 167.936z m-134.656 61.44c16.896 0 29.184-13.824 29.184-29.184 0-16.896-13.824-29.184-29.184-29.184s-29.184 13.824-29.184 29.184c0.512 15.872 12.288 29.184 29.184 29.184zM354.304 463.872c-16.896 0-29.184 13.824-29.184 29.184 0 16.896 13.824 29.184 29.184 29.184 16.896 0 29.184-13.824 29.184-29.184-0.512-15.872-13.824-29.184-29.184-29.184z m0 0"  horiz-adv-x="1024" />

    
    <glyph glyph-name="remove" unicode="&#58925;" d="M305.664 179.712c-8.704 8.704-8.704 22.528 0 31.232l381.952 381.952c8.704 8.704 22.528 8.704 31.232 0 8.704-8.704 8.704-22.528 0-31.232l-381.952-381.952c-8.704-9.216-22.528-8.704-31.232 0zM305.664 592.896c8.704 8.704 22.528 8.704 31.232 0l381.952-381.952c8.704-8.704 8.704-22.528 0-31.232-8.704-8.704-22.528-8.704-31.232 0L305.664 561.664c-8.704 8.704-8.704 22.528 0 31.232z"  horiz-adv-x="1024" />

    
    <glyph glyph-name="mult_select" unicode="&#58926;" d="M735.232 657.92H288.768c-27.648 0-50.176-22.528-50.176-50.176v-446.976c0-27.648 22.528-50.176 50.176-50.176h446.976c27.648 0 50.176 22.528 50.176 50.176V608.256c-0.512 27.648-23.04 49.664-50.688 49.664z m-37.888-169.984l-222.72-240.128c-4.608-5.12-11.264-7.68-17.92-7.68-6.656 0-13.312 3.072-17.92 8.192l-113.152 128.512c-6.144 6.656-8.192 15.36-5.632 24.064 2.56 8.192 9.728 14.336 18.432 16.384 8.704 1.536 17.408-1.536 23.04-8.192l95.744-108.544 204.8 220.672c5.632 6.656 14.336 9.728 23.04 7.68 8.704-2.048 15.36-8.192 17.92-16.896 3.072-8.704 1.024-17.92-5.632-24.064z"  horiz-adv-x="1024" />

    
    <glyph glyph-name="move" unicode="&#58928;" d="M514.048 699.392c174.592 0 315.392-140.8 315.392-315.392s-140.8-315.392-315.392-315.392-315.392 140.8-315.392 315.392c0.512 174.592 141.312 315.392 315.392 315.392zM672.256 348.672H355.84c-19.456 0-35.328 15.872-35.328 35.328 0 19.456 15.872 35.328 35.328 35.328h316.416c19.456 0 35.328-15.872 35.328-35.328 0-19.456-15.872-35.328-35.328-35.328z"  horiz-adv-x="1024" />

    
    <glyph glyph-name="drop_down" unicode="&#58929;" d="M493.056 122.88V690.688c0 10.752 8.704 18.944 18.944 18.944 10.752 0 18.944-8.704 18.944-18.944V122.88l119.808 119.808c7.168 7.168 19.456 7.168 26.624 0 7.168-7.168 7.168-19.456 0-26.624l-152.576-152.576c-7.168-7.168-19.456-7.168-26.624 0l-152.576 152.576c-7.168 7.168-7.168 19.456 0 26.624 7.168 7.168 19.456 7.168 26.624 0L493.056 122.88z"  horiz-adv-x="1024" />

    
    <glyph glyph-name="slippery" unicode="&#58930;" d="M530.944 645.12v-567.808c0-10.752-8.704-18.944-18.944-18.944-10.752 0-18.944 8.704-18.944 18.944V645.12L372.736 525.312c-7.168-7.168-19.456-7.168-26.624 0s-7.168 19.456 0 26.624l152.576 152.576c7.168 7.168 19.456 7.168 26.624 0l152.576-152.576c7.168-7.168 7.168-19.456 0-26.624-7.168-7.168-19.456-7.168-26.624 0L530.944 645.12z"  horiz-adv-x="1024" />

    
    <glyph glyph-name="refresh" unicode="&#58931;" d="M792.064 478.72h-103.424c-15.36 0-27.648-4.096-27.648 11.264s12.288 27.648 27.648 27.648h48.128c-43.52 61.44-131.072 118.272-211.968 118.272-132.096 0-256-123.904-256-257.024 0-132.608 123.392-257.024 256-257.024s239.616 124.416 239.616 257.024c0 15.36 7.168 16.384 22.528 16.384 15.36 0 16.384-1.024 16.384-16.384 0-163.328-115.712-295.936-278.528-295.936-162.304 0-294.4 132.608-294.4 295.936s132.096 295.936 294.4 295.936c98.816 0 185.856-49.152 239.616-123.904v49.664c0 15.36 12.288 27.648 27.648 27.648 15.36 0 11.264-12.288 11.264-27.648v-111.104c0-11.264-2.048-10.752-11.264-10.752z m0 0"  horiz-adv-x="1024" />

    
    <glyph glyph-name="stop" unicode="&#58932;" d="M765.22496 426.1376L417.50528 652.02176A51.34336 51.34336 0 0 1 337.92 609.90464v-451.76832a51.34336 51.34336 0 0 1 79.58528-42.11712l347.71968 225.88416a50.0224 50.0224 0 0 1 0 84.23424z"  horiz-adv-x="1024" />

    
    <glyph glyph-name="full-screen" unicode="&#58933;" d="M965.889895 895.621032H580.124193a49.225692 49.225692 0 0 1-49.116058-49.627684 49.225692 49.225692 0 0 1 49.116058-49.627683h278.324326l-313.480314-314.649744a47.508091 47.508091 0 0 1 66.876775-67.022953l313.626493 315.161369v-279.347577a49.116058 49.116058 0 1 1 98.232115 0V837.149535A52.003088 52.003088 0 0 1 965.889895 895.621032zM58.229537-127.630168h385.802247a49.627683 49.627683 0 0 1 0 99.255367H165.707457l313.626493 314.649743a47.508091 47.508091 0 1 1-67.022954 67.022954l-313.626492-314.649744v279.347578a49.554594 49.554594 0 0 1-49.116058 49.627683A49.225692 49.225692 0 0 1 0.452389 317.99573V-69.158671A52.003088 52.003088 0 0 1 58.229537-127.630168z"  horiz-adv-x="1024" />

    
    <glyph glyph-name="replay" unicode="&#58934;" d="M973.506091 521.004061h-209.132632a50.482645 50.482645 0 1 0 0 100.965289h86.527048A397.751358 397.751358 0 0 1 511.994368 795.023447 411.029079 411.029079 0 1 1 923.023447 383.994368 50.482645 50.482645 0 0 0 1023.988736 383.994368 511.994368 511.994368 0 1 0 511.994368 895.988736a492.299651 492.299651 0 0 0 411.029079-216.334687V758.979043a50.482645 50.482645 0 0 0 100.965289 0v-194.55786a48.229869 48.229869 0 0 0-50.482645-43.28059z m0 0"  horiz-adv-x="1024" />

    
    <glyph glyph-name="play" unicode="&#58935;" d="M317.44 619.52m40.96 0l0 0q40.96 0 40.96-40.96l0-389.12q0-40.96-40.96-40.96l0 0q-40.96 0-40.96 40.96l0 389.12q0 40.96 40.96 40.96ZM624.64 619.52m40.96 0l0 0q40.96 0 40.96-40.96l0-389.12q0-40.96-40.96-40.96l0 0q-40.96 0-40.96 40.96l0 389.12q0 40.96 40.96 40.96Z"  horiz-adv-x="1024" />

    
    <glyph glyph-name="little-stop" unicode="&#58937;" d="M986.146133 459.400533L406.186667 850.705067a85.538133 85.538133 0 0 1-132.642134-72.942934v-782.677333a85.538133 85.538133 0 0 1 132.642134-72.942933l579.959466 391.338666a88.507733 88.507733 0 0 1 0 145.92z"  horiz-adv-x="1024" />

    
    <glyph glyph-name="staff" unicode="&#58936;" d="M512-128a512 512 0 1 0 512 512 512 512 0 0 0-512-512z m0 947.2a435.2 435.2 0 1 1 435.2-435.2A435.2 435.2 0 0 1 512 819.2zM516.2752 128c-12.8 0-132.2752 61.9264-132.2752 78.4384s89.6 322.0736 89.6 322.0736l-76.8 90.8288S384 640 418.1248 640h187.7248c34.1248 0 17.0496-20.6336 17.0496-20.6336L550.4 528.512S640 222.976 640 206.4384 529.0496 128 516.2752 128z"  horiz-adv-x="1024" />

    
    <glyph glyph-name="window_notice" unicode="&#58938;" d="M512-128a512 512 0 1 0 512 512 512 512 0 0 0-512-512zM512 818.984421A434.984421 434.984421 0 1 1 946.984421 384 434.975439 434.975439 0 0 1 512 818.984421z m0.305404-759.421754a68.266667 68.266667 0 1 0 68.266666 68.266666 68.266667 68.266667 0 0 0-68.266666-68.266666z m0 205.150315c-18.863158 0-34.133333 30.540351-34.133334 68.266667l-34.133333 307.2a68.266667 68.266667 0 0 0 136.533333 0l-34.133333-307.2c0-37.726316-15.270175-68.266667-34.133333-68.266667z m0 0"  horiz-adv-x="1024" />

    
    <glyph glyph-name="detail_notice" unicode="&#58939;" d="M512-128a512 512 0 1 0 512 512 512 512 0 0 0-512-512z m0 947.003077A435.003077 435.003077 0 1 1 946.963692 384 434.963692 434.963692 0 0 1 512 819.003077z m0.315077-759.414154a68.253538 68.253538 0 1 0 68.253538 68.411077 68.253538 68.253538 0 0 0-68.253538-68.253538z m0 205.154462c-18.825846 0-34.146462 30.562462-34.146462 68.253538L444.022154 640a68.253538 68.253538 0 0 0 136.546461 0l-34.146461-307.2c0-37.730462-15.281231-68.253538-34.146462-68.253538z m0 0"  horiz-adv-x="1024" />

    
    <glyph glyph-name="market" unicode="&#58940;" d="M1012.622222 783.616v-629.134222a100.266667 100.266667 0 0 0-93.297778-105.927111H218.481778A100.238222 100.238222 0 0 0 125.155556 154.481778V719.445333a100.266667 100.266667 0 0 0 93.297777 105.927111h710.684445a84.024889 84.024889 0 0 0 76.8-57.770666 34.389333 34.389333 0 0 1 26.595555-22.101334 33.564444 33.564444 0 0 1 31.800889 12.771556 36.295111 36.295111 0 0 1 5.176889 34.901333A152.32 152.32 0 0 1 929.137778 896H218.481778A169.557333 169.557333 0 0 1 56.888889 719.445333v-564.963555a169.557333 169.557333 0 0 1 161.592889-176.554667h700.814222A169.585778 169.585778 0 0 1 1080.888889 154.481778V783.616M420.551111 215.921778a34.503111 34.503111 0 0 1 29.923556-26.168889 33.962667 33.962667 0 0 1 34.133333 20.138667l124.074667 273.436444 91.847111-118.215111a33.365333 33.365333 0 0 1 50.887111-2.844445l182.784 190.577778a36.124444 36.124444 0 0 1 9.642667 34.616889 34.730667 34.730667 0 0 1-24.746667 25.372445 33.422222 33.422222 0 0 1-33.393778-10.296889l-155.904-162.474667-102.286222 131.669333a33.706667 33.706667 0 0 1-30.691556 12.999111 34.133333 34.133333 0 0 1-26.88-20.053333l-107.320889-236.657778L429.511111 458.808889a34.872889 34.872889 0 0 1-22.755555 24.746667 33.28 33.28 0 0 1-32.341334-6.741334L204.8 328.590222a36.124444 36.124444 0 0 1-3.982222-49.749333 33.336889 33.336889 0 0 1 48.071111-4.124445l128 112.014223 43.491555-170.894223zM331.633778-128H804.977778a35.299556 35.299556 0 1 1 0 70.570667H331.633778a35.299556 35.299556 0 1 1 0-70.570667z m0 0"  horiz-adv-x="1137" />

    


  </font>
</defs>
</svg>
